<?xml version="1.0" encoding="UTF-8"?>
<svg xmlns="http://www.w3.org/2000/svg" viewBox="76 95 350 95">
  <g>
    <path d="M219.03,167.29c-4.6,0-8.54-1.01-11.83-3.03-3.29-2.02-5.82-4.81-7.59-8.38-1.77-3.57-2.65-7.68-2.65-12.34s.9-8.81,2.7-12.4c1.8-3.59,4.34-6.39,7.63-8.4,3.29-2.01,7.18-3.01,11.68-3.01,3.74,0,7.05.69,9.94,2.05,2.89,1.37,5.19,3.3,6.91,5.79,1.72,2.49,2.7,5.39,2.94,8.71h-1.18c-4.35,0-8.66-1.64-11.54-4.9-.2-.23-.41-.45-.64-.66-1.57-1.49-3.66-2.23-6.28-2.23-2.22,0-4.17.6-5.85,1.78-1.68,1.19-2.98,2.89-3.91,5.11-.93,2.22-1.39,4.88-1.39,7.98s.46,5.83,1.38,8.08c.92,2.25,2.21,3.98,3.88,5.19,1.67,1.21,3.63,1.81,5.89,1.81,1.6,0,3.03-.3,4.3-.91,1.27-.61,2.33-1.49,3.19-2.66,0-.01.02-.02.03-.03,1.86-2.54,4.68-4.19,7.83-4.19h4.29c-.26,3.26-1.22,6.14-2.88,8.65-1.66,2.51-3.92,4.47-6.78,5.88-2.86,1.41-6.22,2.11-10.08,2.11Z"/>
    <path d="M285.1,132.49l-6.04.66c-2.06.23-4.02-.73-5.29-2.37,0,0-.01-.02-.02-.03-.69-.88-1.61-1.59-2.77-2.13-1.16-.54-2.58-.81-4.26-.81-2.26,0-4.15.49-5.68,1.47-1.53.98-2.28,2.25-2.26,3.81-.02,1.34.47,2.43,1.48,3.27,1.01.84,2.68,1.53,5.02,2.07l7.86,1.68c4.36.94,7.6,2.43,9.73,4.47s3.2,4.71,3.22,8.01c-.02,2.9-.86,5.45-2.53,7.66-1.67,2.21-3.98,3.93-6.94,5.17-2.96,1.24-6.36,1.86-10.2,1.86-5.64,0-10.18-1.18-13.62-3.55-3.44-2.37-5.49-5.67-6.15-9.91l4.89-.47c2.88-.28,5.58,1,7.55,3.13.36.39.76.73,1.2,1.03,1.56,1.06,3.59,1.59,6.09,1.59s4.65-.53,6.22-1.59c1.57-1.06,2.35-2.37,2.35-3.93,0-1.32-.51-2.41-1.51-3.27-1.01-.86-2.57-1.52-4.69-1.98l-7.86-1.65c-4.42-.92-7.69-2.47-9.81-4.66-2.12-2.19-3.17-4.96-3.15-8.32-.02-2.84.75-5.3,2.32-7.39,1.57-2.09,3.76-3.71,6.57-4.86,2.81-1.15,6.05-1.72,9.73-1.72,5.4,0,9.65,1.15,12.76,3.45,3.11,2.3,5.03,5.41,5.77,9.33Z"/>
    <path d="M293.98,182.2v-51.46c0-5.76,4.78-10.43,10.68-10.43h0v7.44h.63c.56-1.09,1.35-2.26,2.37-3.5,1.02-1.24,2.4-2.3,4.14-3.19,1.74-.89,3.96-1.33,6.66-1.33,3.56,0,6.77.88,9.64,2.65,2.87,1.77,5.15,4.38,6.84,7.82,1.69,3.45,2.53,7.67,2.53,12.67s-.83,9.14-2.49,12.6c-1.66,3.46-3.92,6.1-6.78,7.91-2.86,1.82-6.1,2.73-9.72,2.73-2.64,0-4.83-.43-6.57-1.29s-3.13-1.9-4.18-3.12c-1.05-1.22-1.86-2.38-2.44-3.47h-.45v23.97h-10.86ZM304.62,142.81c0,2.91.42,5.46,1.27,7.65.85,2.19,2.08,3.89,3.69,5.11,1.61,1.22,3.56,1.83,5.86,1.83s4.41-.63,6.03-1.89c1.62-1.26,2.84-2.99,3.67-5.19.83-2.2,1.24-4.7,1.24-7.52s-.41-5.28-1.23-7.44c-.82-2.17-2.04-3.87-3.66-5.1-1.62-1.23-3.64-1.85-6.06-1.85s-4.29.6-5.91,1.79c-1.62,1.19-2.84,2.86-3.67,5.01-.83,2.15-1.24,4.68-1.24,7.59Z"/>
    <path d="M367.43,167.29c-4.5,0-8.4-.99-11.7-2.97-3.3-1.98-5.85-4.75-7.66-8.31-1.81-3.56-2.71-7.72-2.71-12.48s.9-8.93,2.71-12.51c1.81-3.58,4.36-6.36,7.66-8.34s7.2-2.97,11.7-2.97,8.4.99,11.7,2.97,5.85,4.76,7.66,8.34c1.81,3.58,2.71,7.75,2.71,12.51s-.9,8.92-2.71,12.48c-1.81,3.56-4.36,6.33-7.66,8.31-3.3,1.98-7.2,2.97-11.7,2.97ZM367.49,158.59c2.44,0,4.48-.67,6.12-2.02,1.64-1.35,2.86-3.16,3.67-5.44.81-2.28,1.21-4.82,1.21-7.62s-.4-5.37-1.21-7.66c-.81-2.29-2.04-4.11-3.67-5.47-1.64-1.36-3.68-2.04-6.12-2.04s-4.57.68-6.22,2.04c-1.65,1.36-2.88,3.19-3.69,5.47-.81,2.29-1.21,4.84-1.21,7.66s.4,5.34,1.21,7.62c.81,2.28,2.04,4.09,3.69,5.44,1.65,1.35,3.72,2.02,6.22,2.02Z"/>
    <path d="M423.87,120.32v8.4h-26.48v-8.4h26.48ZM414.78,109.28h0v43.25c0,1.46.23,2.58.68,3.34.45.77,1.04,1.29,1.78,1.57.74.28,1.56.42,2.46.42.68,0,1.3-.05,1.87-.15s1-.19,1.3-.27l1.83,8.49c-.58.2-1.41.42-2.47.66-1.07.24-2.37.38-3.91.42-2.72.08-5.17-.33-7.35-1.24-2.18-.91-3.9-2.33-5.17-4.24-1.27-1.92-1.89-4.32-1.87-7.2v-34.19c0-6,4.86-10.86,10.86-10.86Z"/>
    <path d="M169.91,119.9c-5.37,0-10.31,1.82-14.23,4.88-.01,0-.02.02-.04.03-1.43,1.02-2.88,2.29-4.28,3.85-4.48,4.98-9.99,8.91-16.1,11.68-.06.03-.12.05-.17.08-2.82,1.3-5.45,2.59-11.81,2.61-4.48.01-7.68.02-9.93.01-.04-3.27-2.71-5.91-5.99-5.91s-6,2.68-6,5.99,2.69,6,6,6,5.86-2.55,5.99-5.75c2.22,0,5.32,0,9.58.01,6.36.02,9.34,1.15,12.16,2.45.06.03.12.05.17.08,6.1,2.77,11.62,6.7,16.1,11.68,1.4,1.56,2.86,2.83,4.28,3.85.01,0,.02.02.04.02,3.93,3.06,8.87,4.88,14.23,4.88,12.82,0,23.22-10.39,23.22-23.22s-10.4-23.22-23.22-23.22ZM170.19,151.66c-4.77,0-8.64-3.87-8.64-8.64s3.87-8.64,8.64-8.64,8.64,3.87,8.64,8.64-3.87,8.64-8.64,8.64Z"/>
    <path d="M130.9,148.45c-2.18-1.01-4.46-1.93-7.93-2.43-.32,3.4-1.05,4.26-2.2,6.75-1.59,3.47-3.98,6.07-7.15,7.81-3.17,1.74-7.12,2.61-11.86,2.61h-5.13c-2.76,0-5.01-2.24-5.01-5.01v-36.71c0-2.77,2.24-5.01,5.01-5.01h5.5c4.61,0,8.47.86,11.58,2.57,3.11,1.72,5.47,4.3,7.06,7.74,1.59,3.45,2.39,4.88,2.39,10.08,0,1.02-.03,2.01-.09,2.96,3.48-.55,5.61-1.57,7.83-2.6.07-.03.14-.06.2-.09,1.45-.66,2.87-1.37,4.25-2.14-.21-6.27-1.51-8.83-3.89-13.45-2.62-5.07-6.35-8.97-11.22-11.68-4.86-2.71-10.67-4.07-17.43-4.07h-18.52c-2.77,0-5.01,2.24-5.01,5.01v58.05c0,2.77,2.24,5.01,5.01,5.01h18.06c6.91,0,12.83-1.36,17.76-4.09,4.93-2.73,8.71-6.64,11.33-11.73,1.51-2.94,2.59-4.12,3.23-7.73-1.17-.63-2.37-1.22-3.58-1.78-.07-.03-.13-.06-.2-.09Z"/>
  </g>
</svg>
